<?xml version="1.0" encoding="UTF-8" standalone="no"?>
<svg
   width="32"
   height="32"
   viewBox="0 0 32 32"
   version="1.1"
   id="SVGRoot"
   sodipodi:docname="ic_server.svg"
   inkscape:version="1.1.2 (0a00cf5339, 2022-02-04)"
   xmlns:inkscape="http://www.inkscape.org/namespaces/inkscape"
   xmlns:sodipodi="http://sodipodi.sourceforge.net/DTD/sodipodi-0.dtd"
   xmlns="http://www.w3.org/2000/svg"
   xmlns:svg="http://www.w3.org/2000/svg"
   xmlns:rdf="http://www.w3.org/1999/02/22-rdf-syntax-ns#"
   xmlns:cc="http://creativecommons.org/ns#"
   xmlns:dc="http://purl.org/dc/elements/1.1/">
  <defs
     id="defs1504" />
  <sodipodi:namedview
     id="base"
     pagecolor="#ffffff"
     bordercolor="#666666"
     borderopacity="1.0"
     inkscape:pageopacity="0.0"
     inkscape:pageshadow="2"
     inkscape:zoom="11.667262"
     inkscape:cx="13.970716"
     inkscape:cy="23.313096"
     inkscape:document-units="px"
     inkscape:current-layer="layer1"
     inkscape:document-rotation="0"
     showgrid="true"
     inkscape:window-width="1920"
     inkscape:window-height="1043"
     inkscape:window-x="0"
     inkscape:window-y="0"
     inkscape:window-maximized="1"
     inkscape:pagecheckerboard="1"
     inkscape:snap-bbox="true"
     inkscape:bbox-paths="true"
     inkscape:bbox-nodes="true"
     inkscape:snap-bbox-edge-midpoints="true"
     inkscape:snap-bbox-midpoints="true"
     inkscape:object-paths="true"
     inkscape:snap-intersection-paths="true"
     inkscape:snap-smooth-nodes="true"
     inkscape:snap-midpoints="true"
     inkscape:snap-object-midpoints="true"
     inkscape:snap-center="true">
    <inkscape:grid
       type="xygrid"
       id="grid2074" />
  </sodipodi:namedview>
  <metadata
     id="metadata1507">
    <rdf:RDF>
      <cc:Work
         rdf:about="">
        <dc:format>image/svg+xml</dc:format>
        <dc:type
           rdf:resource="http://purl.org/dc/dcmitype/StillImage" />
      </cc:Work>
    </rdf:RDF>
  </metadata>
  <g
     inkscape:label="Layer 1"
     inkscape:groupmode="layer"
     id="layer1">
    <path
       id="path25095"
       style="color:#000000;fill:#ffffff;stroke-linecap:round;-inkscape-stroke:none"
       d="M 5.3339844 4.3339844 C 3.3206833 4.3339844 1.6660156 5.9866989 1.6660156 8 L 1.6660156 24 C 1.6660156 26.013301 3.3206829 27.666016 5.3339844 27.666016 L 26.666016 27.666016 C 28.679318 27.666016 30.333984 26.013301 30.333984 24 L 30.333984 8 C 30.333984 5.986699 28.679317 4.3339844 26.666016 4.3339844 L 5.3339844 4.3339844 z M 5.3339844 6.3339844 L 26.666016 6.3339844 C 27.599379 6.3339844 28.333984 7.0666373 28.333984 8 L 28.333984 11.732422 L 3.6660156 11.732422 L 3.6660156 8 C 3.6660156 7.0666375 4.4006218 6.3339844 5.3339844 6.3339844 z M 24 7.4003906 A 1.6666666 1.6666666 0 0 0 22.333984 9.0664062 A 1.6666666 1.6666666 0 0 0 24 10.732422 A 1.6666666 1.6666666 0 0 0 25.666016 9.0664062 A 1.6666666 1.6666666 0 0 0 24 7.4003906 z M 3.6660156 13.333984 L 28.333984 13.333984 L 28.333984 18.666016 L 3.6660156 18.666016 L 3.6660156 13.333984 z M 24 14.333984 A 1.6666666 1.6666666 0 0 0 22.333984 16 A 1.6666666 1.6666666 0 0 0 24 17.666016 A 1.6666666 1.6666666 0 0 0 25.666016 16 A 1.6666666 1.6666666 0 0 0 24 14.333984 z M 3.6660156 20.267578 L 28.333984 20.267578 L 28.333984 24 C 28.333984 24.933362 27.599379 25.666016 26.666016 25.666016 L 5.3339844 25.666016 C 4.4006222 25.666016 3.6660156 24.933362 3.6660156 24 L 3.6660156 20.267578 z M 24 21.267578 A 1.6666666 1.6666666 0 0 0 22.333984 22.933594 A 1.6666666 1.6666666 0 0 0 24 24.599609 A 1.6666666 1.6666666 0 0 0 25.666016 22.933594 A 1.6666666 1.6666666 0 0 0 24 21.267578 z " />
  </g>
</svg>
