<svg xmlns="http://www.w3.org/2000/svg" fill="none" viewBox="0 0 170 48">
  <g clip-path="url(#a)">
    <path fill="#003087" d="M62.56 28.672a10.111 10.111 0 0 0 9.983-8.56c.78-4.967-3.101-9.303-8.6-9.303H55.08a.689.689 0 0 0-.69.585l-3.95 25.072a.643.643 0 0 0 .634.742h4.69a.689.689 0 0 0 .688-.585l1.162-7.365a.689.689 0 0 1 .689-.586h4.257Zm3.925-8.786c-.29 1.836-1.709 3.189-4.425 3.189h-3.474l1.053-6.68h3.411c2.81.006 3.723 1.663 3.435 3.496v-.005Zm26.378-1.18H88.41a.69.69 0 0 0-.69.585l-.144.924s-3.457-3.775-9.575-1.225c-3.51 1.461-5.194 4.48-5.91 6.69 0 0-2.277 6.718 2.87 10.417 0 0 4.771 3.556 10.145-.22l-.093.589a.642.642 0 0 0 .634.742h4.451a.689.689 0 0 0 .69-.585l2.708-17.175a.643.643 0 0 0-.634-.742Zm-6.547 9.492a4.996 4.996 0 0 1-4.996 4.276 4.513 4.513 0 0 1-1.397-.205c-1.92-.616-3.015-2.462-2.7-4.462a4.996 4.996 0 0 1 5.014-4.277c.474-.005.946.065 1.398.206 1.913.614 3.001 2.46 2.686 4.462h-.005Z"/>
    <path fill="#0070E0" d="M126.672 28.672a10.115 10.115 0 0 0 9.992-8.56c.779-4.967-3.101-9.303-8.602-9.303h-8.86a.69.69 0 0 0-.689.585l-3.962 25.079a.637.637 0 0 0 .365.683.64.64 0 0 0 .269.06h4.691a.69.69 0 0 0 .689-.586l1.163-7.365a.688.688 0 0 1 .689-.586l4.255-.007Zm3.925-8.786c-.29 1.836-1.709 3.189-4.426 3.189h-3.473l1.054-6.68h3.411c2.808.006 3.723 1.663 3.434 3.496v-.005Zm26.377-1.18h-4.448a.69.69 0 0 0-.689.585l-.146.924s-3.456-3.775-9.574-1.225c-3.509 1.461-5.194 4.48-5.911 6.69 0 0-2.276 6.718 2.87 10.417 0 0 4.772 3.556 10.146-.22l-.093.589a.637.637 0 0 0 .365.683c.084.04.176.06.269.06h4.451a.686.686 0 0 0 .689-.586l2.709-17.175a.657.657 0 0 0-.148-.518.632.632 0 0 0-.49-.224Zm-6.546 9.492a4.986 4.986 0 0 1-4.996 4.276 4.513 4.513 0 0 1-1.399-.205c-1.921-.616-3.017-2.462-2.702-4.462a4.996 4.996 0 0 1 4.996-4.277c.475-.005.947.064 1.399.206 1.933.614 3.024 2.46 2.707 4.462h-.005Z"/>
    <path fill="#003087" d="m109.205 19.131-5.367 9.059-2.723-8.992a.69.69 0 0 0-.664-.492h-4.842a.516.516 0 0 0-.496.689l4.88 15.146-4.413 7.138a.517.517 0 0 0 .442.794h5.217a.858.858 0 0 0 .741-.418l13.632-22.552a.516.516 0 0 0-.446-.789h-5.215a.858.858 0 0 0-.746.417Z"/>
    <path fill="#0070E0" d="m161.982 11.387-3.962 25.079a.637.637 0 0 0 .365.683c.084.04.176.06.269.06h4.689a.688.688 0 0 0 .689-.586l3.963-25.079a.637.637 0 0 0-.146-.517.645.645 0 0 0-.488-.225h-4.69a.69.69 0 0 0-.689.585Z"/>
    <path fill="#001C64" d="M37.146 22.26c-1.006 5.735-5.685 10.07-11.825 10.07h-3.898c-.795 0-1.596.736-1.723 1.55l-1.707 10.835c-.099.617-.388.822-1.013.822h-6.27c-.634 0-.784-.212-.689-.837l.72-7.493-7.526-.389c-.633 0-.862-.345-.772-.977l5.135-32.56c.099-.617.483-.882 1.106-.882h13.023c6.269 0 10.235 4.22 10.72 9.692 3.73 2.52 5.474 5.873 4.72 10.168Z"/>
    <path fill="#0070E0" d="m12.649 25.075-1.907 12.133-1.206 7.612a1.034 1.034 0 0 0 1.016 1.19h6.622a1.27 1.27 0 0 0 1.253-1.072l1.743-11.06a1.27 1.27 0 0 1 1.253-1.071h3.898A12.46 12.46 0 0 0 37.617 22.26c.675-4.307-1.492-8.228-5.201-10.165a9.96 9.96 0 0 1-.12 1.37 12.461 12.461 0 0 1-12.295 10.54h-6.1a1.268 1.268 0 0 0-1.252 1.07Z"/>
    <path fill="#003087" d="M10.741 37.208H3.03a1.035 1.035 0 0 1-1.018-1.192L7.208 3.072A1.268 1.268 0 0 1 8.46 2H21.7c6.269 0 10.827 4.562 10.72 10.089a11.567 11.567 0 0 0-5.399-1.287H15.983a1.27 1.27 0 0 0-1.254 1.071l-2.08 13.202-1.908 12.133Z"/>
  </g>
  <defs>
    <clipPath id="a">
      <path fill="#fff" d="M0 0h166v44.01H0z" transform="translate(2 2)"/>
    </clipPath>
  </defs>
</svg>
