<?xml version="1.0" encoding="UTF-8"?>
<!--Generator: Apple Native CoreSVG 175.5-->
<!DOCTYPE svg
PUBLIC "-//W3C//DTD SVG 1.1//EN"
       "http://www.w3.org/Graphics/SVG/1.1/DTD/svg11.dtd">
<svg version="1.1" xmlns="http://www.w3.org/2000/svg" xmlns:xlink="http://www.w3.org/1999/xlink" width="25.0904" height="22.9214">
 <g>
  <rect height="22.9214" opacity="0" width="25.0904" x="0" y="0"/>
  <path d="M13.2085 4.87402C12.7144 4.87402 12.3101 5.26709 12.3101 5.76123L12.3101 12.0278C12.3101 12.2861 12.3887 12.5107 12.5796 12.7578L15.3536 16.4189C15.7242 16.9019 16.2408 16.9805 16.7012 16.666C17.1167 16.374 17.1504 15.8462 16.8135 15.3857L13.0738 10.3433L14.0958 13.4878L14.0958 5.76123C14.0958 5.26709 13.7027 4.87402 13.2085 4.87402ZM13.6353 22.9102C19.8907 22.9102 25.0904 17.7104 25.0904 11.4551C25.0904 5.18848 19.8907 0 13.6353 0C7.3687 0 2.18023 5.17725 2.18023 11.4438L4.08941 11.4438C4.08941 6.14307 8.33452 1.92041 13.6353 1.92041C18.9361 1.92041 23.1812 6.1543 23.1812 11.4551C23.1812 16.7559 18.9361 21.0234 13.6353 21.001C10.4346 20.9897 7.627 19.4399 5.90874 17.0479C5.5606 16.5874 5.03277 16.4414 4.56109 16.7222C4.11187 17.0029 3.98833 17.6206 4.37017 18.1147C6.50396 20.9785 9.85064 22.9102 13.6353 22.9102ZM0.798879 9.2876C-0.00971519 9.2876-0.211864 9.83789 0.226125 10.4668L2.74175 14.0381C3.11236 14.5547 3.65142 14.5435 4.01079 14.0381L6.52642 10.4556C6.95318 9.83789 6.75103 9.2876 5.95366 9.2876Z" fill="#ffffff" fill-opacity="0.85"/>
 </g>
</svg>
