<?xml version="1.0" encoding="UTF-8" standalone="no"?>
<!-- Created with Inkscape (http://www.inkscape.org/) -->

<svg
   width="36"
   height="36"
   viewBox="0 0 36 36"
   version="1.1"
   id="SVGRoot"
   sodipodi:docname="shuffle_large_on.svg"
   inkscape:version="1.1.2 (0a00cf5339, 2022-02-04)"
   xmlns:inkscape="http://www.inkscape.org/namespaces/inkscape"
   xmlns:sodipodi="http://sodipodi.sourceforge.net/DTD/sodipodi-0.dtd"
   xmlns="http://www.w3.org/2000/svg"
   xmlns:svg="http://www.w3.org/2000/svg">
  <sodipodi:namedview
     id="namedview9856"
     pagecolor="#ffffff"
     bordercolor="#111111"
     borderopacity="1"
     inkscape:pageshadow="0"
     inkscape:pageopacity="0"
     inkscape:pagecheckerboard="1"
     inkscape:document-units="px"
     showgrid="true"
     inkscape:zoom="11.313709"
     inkscape:cx="19.268659"
     inkscape:cy="11.313708"
     inkscape:window-width="1920"
     inkscape:window-height="1043"
     inkscape:window-x="0"
     inkscape:window-y="0"
     inkscape:window-maximized="1"
     inkscape:current-layer="layer1"
     inkscape:snap-bbox="true"
     inkscape:bbox-paths="true"
     inkscape:bbox-nodes="true"
     inkscape:snap-bbox-edge-midpoints="true"
     inkscape:snap-bbox-midpoints="true"
     inkscape:object-paths="true"
     inkscape:snap-intersection-paths="true"
     inkscape:snap-smooth-nodes="true"
     inkscape:snap-midpoints="true"
     inkscape:snap-object-midpoints="true"
     inkscape:snap-center="true">
    <inkscape:grid
       type="xygrid"
       id="grid9919" />
  </sodipodi:namedview>
  <defs
     id="defs9851" />
  <g
     inkscape:label="Layer 1"
     inkscape:groupmode="layer"
     id="layer1">
    <path
       id="path15452"
       style="color:#000000;fill:#000000;stroke-linecap:round;-inkscape-stroke:none"
       d="m 24,8.5 a 1,1 0 0 0 -0.707031,0.2929688 1,1 0 0 0 0,1.4140622 L 24.585938,11.5 h -1.472657 c -1.651701,0 -3.199989,0.818151 -4.130859,2.183594 L 17.25,16.224609 15.517578,13.683594 C 14.586942,12.318495 13.03917,11.5 11.386719,11.5 H 9 a 1,1 0 0 0 -1,1 1,1 0 0 0 1,1 h 2.386719 c 0.993546,0 1.919153,0.490048 2.478515,1.310547 L 16.039063,18 13.865234,21.189453 C 13.305863,22.010039 12.380265,22.5 11.386719,22.5 H 9 a 1,1 0 0 0 -1,1 1,1 0 0 0 1,1 h 2.386719 c 1.652452,0 3.200232,-0.818382 4.130859,-2.183594 L 17.25,19.775391 18.982422,22.316406 C 19.913276,23.681826 21.46153,24.5 23.113281,24.5 h 1.472657 l -1.292969,1.292969 a 1,1 0 0 0 0,1.414062 1,1 0 0 0 1.414062,0 L 28.414062,23.5 24.707031,19.792969 a 1,1 0 0 0 -1.414062,0 1,1 0 0 0 0,1.414062 L 24.585938,22.5 h -1.472657 c -0.992246,0 -1.919371,-0.490369 -2.478515,-1.310547 L 18.460938,18 20.634766,14.810547 C 21.193894,13.990392 22.120985,13.5 23.113281,13.5 h 1.472657 l -1.292969,1.292969 a 1,1 0 0 0 0,1.414062 1,1 0 0 0 1.414062,0 L 28.414062,12.5 24.707031,8.7929688 A 1,1 0 0 0 24,8.5 Z" />
    <circle
       style="color:#000000;overflow:visible;fill:#000000;stroke-width:3.5;stroke-linejoin:round;stop-color:#000000"
       id="path1044"
       cx="18"
       cy="34"
       r="2" />
  </g>
</svg>
