<?xml version="1.0" encoding="UTF-8"?>
<!--Generator: Apple Native CoreSVG 341-->
<!DOCTYPE svg
PUBLIC "-//W3C//DTD SVG 1.1//EN"
       "http://www.w3.org/Graphics/SVG/1.1/DTD/svg11.dtd">
<svg version="1.1" xmlns="http://www.w3.org/2000/svg" xmlns:xlink="http://www.w3.org/1999/xlink" viewBox="0 0 3300 2200">
 <!--glyph: "10173E", point size: 100.0, font version: "20.0d10e1", template writer version: "138.0.0"-->
 <style>.multicolor-0:tintColor {}
.multicolor-1:tintColor {}
.multicolor-2:tintColor {}

.hierarchical-0:secondary {}
.hierarchical-1:primary {}
.hierarchical-2:primary {}

.SFSymbolsPreview007AFF {fill:#007AFF;opacity:1.0}
</style>
 <g id="Notes">
  <rect height="2200" id="artboard" style="fill:white;opacity:1" width="3300" x="0" y="0"/>
  <line style="fill:none;stroke:black;opacity:1;stroke-width:0.5;" x1="263" x2="3036" y1="292" y2="292"/>
  <text style="stroke:none;fill:black;font-family:sans-serif;font-size:13;font-weight:bold;" transform="matrix(1 0 0 1 263 322)">Weight/Scale Variations</text>
  <text style="stroke:none;fill:black;font-family:sans-serif;font-size:13;text-anchor:middle;" transform="matrix(1 0 0 1 559.711 322)">Ultralight</text>
  <text style="stroke:none;fill:black;font-family:sans-serif;font-size:13;text-anchor:middle;" transform="matrix(1 0 0 1 856.422 322)">Thin</text>
  <text style="stroke:none;fill:black;font-family:sans-serif;font-size:13;text-anchor:middle;" transform="matrix(1 0 0 1 1153.13 322)">Light</text>
  <text style="stroke:none;fill:black;font-family:sans-serif;font-size:13;text-anchor:middle;" transform="matrix(1 0 0 1 1449.84 322)">Regular</text>
  <text style="stroke:none;fill:black;font-family:sans-serif;font-size:13;text-anchor:middle;" transform="matrix(1 0 0 1 1746.56 322)">Medium</text>
  <text style="stroke:none;fill:black;font-family:sans-serif;font-size:13;text-anchor:middle;" transform="matrix(1 0 0 1 2043.27 322)">Semibold</text>
  <text style="stroke:none;fill:black;font-family:sans-serif;font-size:13;text-anchor:middle;" transform="matrix(1 0 0 1 2339.98 322)">Bold</text>
  <text style="stroke:none;fill:black;font-family:sans-serif;font-size:13;text-anchor:middle;" transform="matrix(1 0 0 1 2636.69 322)">Heavy</text>
  <text style="stroke:none;fill:black;font-family:sans-serif;font-size:13;text-anchor:middle;" transform="matrix(1 0 0 1 2933.4 322)">Black</text>
  <line style="fill:none;stroke:black;opacity:1;stroke-width:0.5;" x1="263" x2="3036" y1="1903" y2="1903"/>
  <g transform="matrix(0.2 0 0 0.2 263 1933)">
   <path d="m46.2402 4.15039c21.7773 0 39.4531-17.627 39.4531-39.4043s-17.6758-39.4043-39.4531-39.4043c-21.7285 0-39.4043 17.627-39.4043 39.4043s17.6758 39.4043 39.4043 39.4043Zm0-7.42188c-17.6758 0-31.9336-14.3066-31.9336-31.9824s14.2578-31.9824 31.9336-31.9824 31.9824 14.3066 31.9824 31.9824-14.3066 31.9824-31.9824 31.9824Zm-17.9688-31.9824c0 2.14844 1.51367 3.61328 3.75977 3.61328h10.498v10.5957c0 2.19727 1.46484 3.71094 3.61328 3.71094 2.24609 0 3.71094-1.51367 3.71094-3.71094v-10.5957h10.5957c2.19727 0 3.71094-1.46484 3.71094-3.61328 0-2.19727-1.51367-3.71094-3.71094-3.71094h-10.5957v-10.5469c0-2.24609-1.46484-3.75977-3.71094-3.75977-2.14844 0-3.61328 1.51367-3.61328 3.75977v10.5469h-10.498c-2.24609 0-3.75977 1.51367-3.75977 3.71094Z"/>
  </g>
  <g transform="matrix(0.2 0 0 0.2 281.506 1933)">
   <path d="m58.5449 14.5508c27.4902 0 49.8047-22.3145 49.8047-49.8047s-22.3145-49.8047-49.8047-49.8047-49.8047 22.3145-49.8047 49.8047 22.3145 49.8047 49.8047 49.8047Zm0-8.30078c-22.9492 0-41.5039-18.5547-41.5039-41.5039s18.5547-41.5039 41.5039-41.5039 41.5039 18.5547 41.5039 41.5039-18.5547 41.5039-41.5039 41.5039Zm-22.6562-41.5039c0 2.39258 1.66016 4.00391 4.15039 4.00391h14.3555v14.4043c0 2.44141 1.66016 4.15039 4.05273 4.15039 2.44141 0 4.15039-1.66016 4.15039-4.15039v-14.4043h14.4043c2.44141 0 4.15039-1.61133 4.15039-4.00391 0-2.44141-1.70898-4.15039-4.15039-4.15039h-14.4043v-14.3555c0-2.49023-1.70898-4.19922-4.15039-4.19922-2.39258 0-4.05273 1.70898-4.05273 4.19922v14.3555h-14.3555c-2.49023 0-4.15039 1.70898-4.15039 4.15039Z"/>
  </g>
  <g transform="matrix(0.2 0 0 0.2 304.924 1933)">
   <path d="m74.8535 28.3203c35.1074 0 63.623-28.4668 63.623-63.5742s-28.5156-63.623-63.623-63.623-63.5742 28.5156-63.5742 63.623 28.4668 63.5742 63.5742 63.5742Zm0-9.08203c-30.127 0-54.4922-24.3652-54.4922-54.4922s24.3652-54.4922 54.4922-54.4922 54.4922 24.3652 54.4922 54.4922-24.3652 54.4922-54.4922 54.4922Zm-28.8574-54.4922c0 2.58789 1.85547 4.39453 4.58984 4.39453h19.7266v19.7754c0 2.68555 1.85547 4.58984 4.44336 4.58984 2.68555 0 4.54102-1.85547 4.54102-4.58984v-19.7754h19.7754c2.68555 0 4.58984-1.80664 4.58984-4.39453 0-2.73438-1.85547-4.58984-4.58984-4.58984h-19.7754v-19.7266c0-2.73438-1.85547-4.63867-4.54102-4.63867-2.58789 0-4.44336 1.9043-4.44336 4.63867v19.7266h-19.7266c-2.73438 0-4.58984 1.85547-4.58984 4.58984Z"/>
  </g>
  <text style="stroke:none;fill:black;font-family:sans-serif;font-size:13;font-weight:bold;" transform="matrix(1 0 0 1 263 1953)">Design Variations</text>
  <text style="stroke:none;fill:black;font-family:sans-serif;font-size:13;" transform="matrix(1 0 0 1 263 1971)">Symbols are supported in up to nine weights and three scales.</text>
  <text style="stroke:none;fill:black;font-family:sans-serif;font-size:13;" transform="matrix(1 0 0 1 263 1989)">For optimal layout with text and other symbols, vertically align</text>
  <text style="stroke:none;fill:black;font-family:sans-serif;font-size:13;" transform="matrix(1 0 0 1 263 2007)">symbols with the adjacent text.</text>
  <line style="fill:none;stroke:#00AEEF;stroke-width:0.5;opacity:1.0;" x1="776" x2="776" y1="1919" y2="1933"/>
  <g transform="matrix(0.2 0 0 0.2 776 1933)">
   <path d="m16.5527 0.78125c2.58789 0 3.85742-0.976562 4.78516-3.71094l6.29883-17.2363h28.8086l6.29883 17.2363c0.927734 2.73438 2.19727 3.71094 4.73633 3.71094 2.58789 0 4.24805-1.5625 4.24805-4.00391 0-0.830078-0.146484-1.61133-0.537109-2.63672l-22.9004-60.9863c-1.12305-2.97852-3.125-4.49219-6.25-4.49219-3.02734 0-5.07812 1.46484-6.15234 4.44336l-22.9004 61.084c-0.390625 1.02539-0.537109 1.80664-0.537109 2.63672 0 2.44141 1.5625 3.95508 4.10156 3.95508Zm13.4766-28.3691 11.8652-32.8613h0.244141l11.8652 32.8613Z"/>
  </g>
  <line style="fill:none;stroke:#00AEEF;stroke-width:0.5;opacity:1.0;" x1="792.836" x2="792.836" y1="1919" y2="1933"/>
  <text style="stroke:none;fill:black;font-family:sans-serif;font-size:13;font-weight:bold;" transform="matrix(1 0 0 1 776 1953)">Margins</text>
  <text style="stroke:none;fill:black;font-family:sans-serif;font-size:13;" transform="matrix(1 0 0 1 776 1971)">Leading and trailing margins on the left and right side of each symbol</text>
  <text style="stroke:none;fill:black;font-family:sans-serif;font-size:13;" transform="matrix(1 0 0 1 776 1989)">can be adjusted by modifying the x-location of the margin guidelines.</text>
  <text style="stroke:none;fill:black;font-family:sans-serif;font-size:13;" transform="matrix(1 0 0 1 776 2007)">Modifications are automatically applied proportionally to all</text>
  <text style="stroke:none;fill:black;font-family:sans-serif;font-size:13;" transform="matrix(1 0 0 1 776 2025)">scales and weights.</text>
  <g transform="matrix(0.2 0 0 0.2 1289 1933)">
   <path d="m14.209 9.32617 8.49609 8.54492c4.29688 4.3457 9.22852 4.05273 13.8672-1.07422l53.4668-58.9355-4.83398-4.88281-53.0762 58.3984c-1.75781 2.00195-3.41797 2.49023-5.76172 0.146484l-5.85938-5.81055c-2.34375-2.29492-1.80664-4.00391 0.195312-5.81055l57.373-54.0039-4.88281-4.83398-57.959 54.4434c-4.93164 4.58984-5.32227 9.47266-1.02539 13.8184Zm32.0801-90.9668c-2.09961 2.05078-2.24609 4.93164-1.07422 6.88477 1.17188 1.80664 3.4668 2.97852 6.68945 2.14844 7.32422-1.70898 14.9414-2.00195 22.0703 2.68555l-2.92969 7.27539c-1.70898 4.15039-0.830078 7.08008 1.85547 9.81445l11.4746 11.5723c2.44141 2.44141 4.49219 2.53906 7.32422 2.05078l5.32227-0.976562 3.32031 3.36914-0.195312 2.7832c-0.195312 2.49023 0.439453 4.39453 2.88086 6.78711l3.80859 3.71094c2.39258 2.39258 5.46875 2.53906 7.8125 0.195312l14.5508-14.5996c2.34375-2.34375 2.24609-5.32227-0.146484-7.71484l-3.85742-3.80859c-2.39258-2.39258-4.24805-3.17383-6.64062-2.97852l-2.88086 0.244141-3.22266-3.17383 1.2207-5.61523c0.634766-2.83203-0.146484-5.0293-3.07617-7.95898l-10.9863-10.9375c-16.6992-16.6016-38.8672-16.2109-53.3203-1.75781Zm7.4707 1.85547c12.1582-8.88672 28.6133-7.37305 39.7461 3.75977l12.1582 12.0605c1.17188 1.17188 1.36719 2.09961 1.02539 3.80859l-1.61133 7.42188 7.51953 7.42188 4.93164-0.292969c1.26953-0.0488281 1.66016 0.0488281 2.63672 1.02539l2.88086 2.88086-12.207 12.207-2.88086-2.88086c-0.976562-0.976562-1.12305-1.36719-1.07422-2.68555l0.341797-4.88281-7.4707-7.42188-7.61719 1.26953c-1.61133 0.341797-2.34375 0.195312-3.56445-0.976562l-10.0098-10.0098c-1.26953-1.17188-1.41602-2.00195-0.634766-3.85742l4.39453-10.4492c-7.8125-7.27539-17.9688-10.4004-28.125-7.42188-0.78125 0.195312-1.07422-0.439453-0.439453-0.976562Z"/>
  </g>
  <text style="stroke:none;fill:black;font-family:sans-serif;font-size:13;font-weight:bold;" transform="matrix(1 0 0 1 1289 1953)">Exporting</text>
  <text style="stroke:none;fill:black;font-family:sans-serif;font-size:13;" transform="matrix(1 0 0 1 1289 1971)">Symbols should be outlined when exporting to ensure the</text>
  <text style="stroke:none;fill:black;font-family:sans-serif;font-size:13;" transform="matrix(1 0 0 1 1289 1989)">design is preserved when submitting to Xcode.</text>
  <text id="template-version" style="stroke:none;fill:black;font-family:sans-serif;font-size:13;text-anchor:end;" transform="matrix(1 0 0 1 3036 1933)">Template v.3.0</text>
  <text style="stroke:none;fill:black;font-family:sans-serif;font-size:13;text-anchor:end;" transform="matrix(1 0 0 1 3036 1951)">Requires Xcode 13 or greater</text>
  <text id="descriptive-name" style="stroke:none;fill:black;font-family:sans-serif;font-size:13;text-anchor:end;" transform="matrix(1 0 0 1 3036 1969)">Generated from book.pages</text>
  <text style="stroke:none;fill:black;font-family:sans-serif;font-size:13;text-anchor:end;" transform="matrix(1 0 0 1 3036 1987)">Typeset at 100.0 points</text>
  <text style="stroke:none;fill:black;font-family:sans-serif;font-size:13;" transform="matrix(1 0 0 1 263 726)">Small</text>
  <text style="stroke:none;fill:black;font-family:sans-serif;font-size:13;" transform="matrix(1 0 0 1 263 1156)">Medium</text>
  <text style="stroke:none;fill:black;font-family:sans-serif;font-size:13;" transform="matrix(1 0 0 1 263 1586)">Large</text>
 </g>
 <g id="Guides">
  <g id="H-reference" style="fill:#27AAE1;stroke:none;" transform="matrix(1 0 0 1 339 696)">
   <path d="M0.993654 0L3.63775 0L29.3281-67.1323L30.0303-67.1323L30.0303-70.459L28.1226-70.459ZM11.6885-24.4799L46.9815-24.4799L46.2315-26.7285L12.4385-26.7285ZM55.1196 0L57.7637 0L30.6382-70.459L29.4326-70.459L29.4326-67.1323Z"/>
  </g>
  <line id="Baseline-S" style="fill:none;stroke:#27AAE1;opacity:1;stroke-width:0.5;" x1="263" x2="3036" y1="696" y2="696"/>
  <line id="Capline-S" style="fill:none;stroke:#27AAE1;opacity:1;stroke-width:0.5;" x1="263" x2="3036" y1="625.541" y2="625.541"/>
  <g id="H-reference" style="fill:#27AAE1;stroke:none;" transform="matrix(1 0 0 1 339 1126)">
   <path d="M0.993654 0L3.63775 0L29.3281-67.1323L30.0303-67.1323L30.0303-70.459L28.1226-70.459ZM11.6885-24.4799L46.9815-24.4799L46.2315-26.7285L12.4385-26.7285ZM55.1196 0L57.7637 0L30.6382-70.459L29.4326-70.459L29.4326-67.1323Z"/>
  </g>
  <line id="Baseline-M" style="fill:none;stroke:#27AAE1;opacity:1;stroke-width:0.5;" x1="263" x2="3036" y1="1126" y2="1126"/>
  <line id="Capline-M" style="fill:none;stroke:#27AAE1;opacity:1;stroke-width:0.5;" x1="263" x2="3036" y1="1055.54" y2="1055.54"/>
  <g id="H-reference" style="fill:#27AAE1;stroke:none;" transform="matrix(1 0 0 1 339 1556)">
   <path d="M0.993654 0L3.63775 0L29.3281-67.1323L30.0303-67.1323L30.0303-70.459L28.1226-70.459ZM11.6885-24.4799L46.9815-24.4799L46.2315-26.7285L12.4385-26.7285ZM55.1196 0L57.7637 0L30.6382-70.459L29.4326-70.459L29.4326-67.1323Z"/>
  </g>
  <line id="Baseline-L" style="fill:none;stroke:#27AAE1;opacity:1;stroke-width:0.5;" x1="263" x2="3036" y1="1556" y2="1556"/>
  <line id="Capline-L" style="fill:none;stroke:#27AAE1;opacity:1;stroke-width:0.5;" x1="263" x2="3036" y1="1485.54" y2="1485.54"/>
  <line id="right-margin-Black-S" style="fill:none;stroke:#00AEEF;stroke-width:0.5;opacity:1.0;" x1="2984.08" x2="2984.08" y1="600.785" y2="720.121"/>
  <line id="left-margin-Black-S" style="fill:none;stroke:#00AEEF;stroke-width:0.5;opacity:1.0;" x1="2882.72" x2="2882.72" y1="600.785" y2="720.121"/>
  <line id="right-margin-Regular-S" style="fill:none;stroke:#00AEEF;stroke-width:0.5;opacity:1.0;" x1="1494.94" x2="1494.94" y1="600.785" y2="720.121"/>
  <line id="left-margin-Regular-S" style="fill:none;stroke:#00AEEF;stroke-width:0.5;opacity:1.0;" x1="1404.75" x2="1404.75" y1="600.785" y2="720.121"/>
  <line id="right-margin-Ultralight-S" style="fill:none;stroke:#00AEEF;stroke-width:0.5;opacity:1.0;" x1="600.74" x2="600.74" y1="600.785" y2="720.121"/>
  <line id="left-margin-Ultralight-S" style="fill:none;stroke:#00AEEF;stroke-width:0.5;opacity:1.0;" x1="518.683" x2="518.683" y1="600.785" y2="720.121"/>
 </g>
 <g id="Symbols">
  <g id="Black-S" transform="matrix(1 0 0 1 2882.72 696)">
   <path class="multicolor-0:tintColor hierarchical-0:secondary SFSymbolsPreview007AFF" d="M46.3379 11.6699L76.7578 11.6699C86.4258 11.6699 91.6016 6.44531 91.6016-3.36914L91.6016-59.1309C91.6016-68.1152 87.1582-73.4375 78.6621-74.4629C79.1016-71.0449 79.3457-69.3359 79.3457-67.3828L79.3457-13.0859C79.3457 0.78125 73.0957 4.78516 65.1855 7.27539C59.9121 8.93555 53.3203 10.4492 46.3379 11.6699Z"/>
   <path class="multicolor-1:tintColor hierarchical-1:primary SFSymbolsPreview007AFF" d="M9.76562-4.88281C9.76562 3.32031 14.8926 8.59375 24.1211 8.00781C37.0117 7.22656 52.9785 4.44336 63.2812 1.2207C70.5078-1.02539 72.5586-5.9082 72.5586-13.0859L72.5586-68.7012C72.5586-78.418 66.2109-82.4219 57.1289-80.2246C47.168-77.7344 33.0566-75.4395 21.4844-74.5605C13.6719-73.9746 9.76562-70.166 9.76562-62.4512ZM21.9727-6.73828L21.9727-60.6934C21.9727-61.7188 22.9004-62.5488 24.2188-62.6465C33.4961-63.2324 47.4121-65.4785 57.9102-68.0664C59.3262-68.4082 60.3516-67.5781 60.3516-66.0156L60.3516-13.3789C60.3516-11.6699 60.2051-10.498 58.3496-9.91211C50.2441-7.27539 36.3281-4.93164 24.6094-4.19922C23.0469-4.10156 21.9727-4.93164 21.9727-6.73828Z"/>
   <path class="multicolor-2:tintColor hierarchical-2:primary SFSymbolsPreview007AFF" d="M29.9805-29.1016C38.8184-29.834 45.752-31.2012 52.5879-32.7637C54.6387-33.3008 55.127-34.4727 55.127-35.6445C55.127-37.1094 53.9551-38.5254 51.8555-38.0859C45.459-36.5723 38.6719-35.2539 29.834-34.5215C28.0273-34.3262 27.1973-33.1055 27.1973-31.7383C27.1973-30.2734 28.3203-29.0039 29.9805-29.1016ZM29.9805-38.7695C38.8184-39.5508 45.752-40.8691 52.5879-42.4316C54.6387-42.9688 55.127-44.1406 55.127-45.3613C55.127-46.8262 53.9551-48.1934 51.8555-47.7539C45.459-46.2402 38.6719-44.9219 29.834-44.1895C28.0273-44.0918 27.1973-42.8223 27.1973-41.4551C27.1973-39.8926 28.3203-38.7207 29.9805-38.7695ZM29.9805-48.4863C38.8184-49.2188 45.752-50.5859 52.5879-52.1484C54.6387-52.6855 55.127-53.8574 55.127-55.0293C55.127-56.4941 53.9551-57.9102 51.8555-57.4707C45.459-55.957 38.6719-54.5898 29.834-53.9062C28.0273-53.7109 27.1973-52.4902 27.1973-51.123C27.1973-49.6582 28.3203-48.3887 29.9805-48.4863ZM29.9805-19.4336C35.3027-19.7754 38.7695-20.3125 41.8457-20.8984C43.4082-21.1914 44.1895-22.4609 44.1895-23.6816C44.1895-25.1465 43.0664-26.5625 40.8691-26.1719C38.2324-25.6836 35.0098-25.1953 29.834-24.8535C28.0273-24.7559 27.1973-23.4863 27.1973-22.0703C27.1973-20.5566 28.3203-19.3848 29.9805-19.4336Z"/>
  </g>
  <g id="Regular-S" transform="matrix(1 0 0 1 1404.75 696)">
   <path class="multicolor-0:tintColor hierarchical-0:secondary SFSymbolsPreview007AFF" d="M41.8457 9.08203L68.1641 9.08203C76.3672 9.08203 80.4199 4.98047 80.4199-3.36914L80.4199-59.4238C80.4199-65.8203 77.9785-69.7754 73.0469-71.1426C73.1934-70.0195 73.291-68.7988 73.291-67.5293L73.291-12.793C73.291-3.32031 69.8242 1.95312 61.6699 4.44336C54.248 6.64062 47.7539 8.05664 41.8457 9.08203Z"/>
   <path class="multicolor-1:tintColor hierarchical-1:primary SFSymbolsPreview007AFF" d="M9.76562-4.83398C9.76562 2.34375 14.1113 5.95703 21.7773 5.46875C34.5703 4.6875 45.1172 3.41797 60.0098-1.02539C65.625-2.73438 67.5781-5.71289 67.5781-12.793L67.5781-67.5293C67.5781-75.6836 63.3301-79.6875 55.4199-77.7344C45.1172-75.2441 34.5703-73.2422 20.5566-72.3145C14.1113-71.8262 9.76562-68.1152 9.76562-60.7422ZM16.7969-6.10352L16.7969-60.9375C16.7969-64.0625 18.75-65.1855 21.3867-65.3809C34.7168-66.2109 44.9707-68.2129 55.0293-70.6543C58.5449-71.5332 60.5469-69.6289 60.5469-66.2109L60.5469-13.0859C60.5469-9.57031 59.5703-8.05664 56.7383-7.27539C44.9707-3.61328 34.7168-2.34375 22.0703-1.61133C18.75-1.41602 16.7969-3.02734 16.7969-6.10352Z"/>
   <path class="multicolor-2:tintColor hierarchical-2:primary SFSymbolsPreview007AFF" d="M24.707-27.8809C35.5957-28.7109 44.0918-30.3223 52.6855-32.2754C54.6387-32.7637 55.0781-33.7402 55.0781-34.9121C55.0781-36.2305 54.0527-37.4023 52.1484-36.9629C44.0918-35.1074 35.5957-33.4961 24.707-32.666C23.0469-32.5195 22.2656-31.4453 22.2656-30.1758C22.2656-28.8086 23.291-27.7832 24.707-27.8809ZM24.707-39.9414C35.5957-40.7715 44.0918-42.3828 52.6855-44.3359C54.6387-44.7754 55.0781-45.8008 55.0781-46.9727C55.0781-48.291 54.0527-49.4141 52.1484-49.0234C44.0918-47.168 35.5957-45.5078 24.707-44.6777C23.0469-44.5312 22.2656-43.5059 22.2656-42.2363C22.2656-40.8691 23.291-39.8438 24.707-39.9414ZM24.707-51.9531C35.5957-52.7832 44.0918-54.4434 52.6855-56.3965C54.6387-56.8359 55.0781-57.8125 55.0781-59.0332C55.0781-60.3516 54.0527-61.4746 52.1484-61.0352C44.0918-59.1797 35.5957-57.5684 24.707-56.7383C23.0469-56.5918 22.2656-55.5664 22.2656-54.2969C22.2656-52.9297 23.291-51.8555 24.707-51.9531ZM24.707-15.8691C31.2012-16.3086 35.3516-16.8945 39.2578-17.5781C40.6738-17.8711 41.4062-18.9941 41.4062-20.0684C41.4062-21.3867 40.3809-22.6074 38.4277-22.2168C35.0586-21.6309 31.0547-21.0449 24.707-20.6543C23.0469-20.5078 22.2656-19.4824 22.2656-18.1641C22.2656-16.7969 23.291-15.7715 24.707-15.8691Z"/>
  </g>
  <g id="Ultralight-S" transform="matrix(1 0 0 1 518.683 696)">
   <path class="multicolor-0:tintColor hierarchical-0:secondary SFSymbolsPreview007AFF" d="M33.4903 6.49367L62.3062 6.49367C68.8292 6.49367 72.2916 3.02785 72.2916-3.50537L72.2916-64.101C72.2916-67.8183 71.0308-70.3657 69.0962-71.1426C69.1519-70.6553 69.1587-70.1611 69.1587-69.6181L69.1587-7.70707C69.1587-1.23146 65.0562 2.40722 59.1724 3.30811C51.0694 4.55177 42.1685 5.5591 33.4903 6.49367Z"/>
   <path class="multicolor-1:tintColor hierarchical-1:primary SFSymbolsPreview007AFF" d="M9.76562-3.56251C9.76562 0.799817 12.7036 3.55031 17.418 3.51613C30.3926 3.41603 45.5713 2.50977 58.6475 0.336903C63.3091-0.463885 66.0796-2.94289 66.0796-7.70707L66.0796-69.6181C66.0796-74.4121 62.7398-77.0537 57.9629-76.2359C45.5713-74.2905 30.3926-72.7881 17.8321-72.7231C12.6582-72.689 9.76562-69.977 9.76562-65.1015ZM11.9834-3.74221L11.9834-65.0244C11.9834-68.5581 14.1182-70.5439 17.9356-70.5122C30.4483-70.5703 45.5156-72.0727 57.8447-74.06C61.4057-74.5757 63.9072-73.0346 63.9072-69.4804L63.9072-7.77299C63.9072-4.21196 61.8862-2.38042 58.4184-1.82621C45.5156 0.246552 30.4483 1.24362 17.5293 1.2949C14.1182 1.30857 11.9834-0.620624 11.9834-3.74221Z"/>
   <path class="multicolor-2:tintColor hierarchical-2:primary SFSymbolsPreview007AFF" d="M22.482-29.3794C33.189-29.3921 42.7749-30.4131 53.3667-32.3662C54.0483-32.4912 54.4878-32.8774 54.4878-33.4136C54.4878-34.0054 54.0073-34.5869 53.3745-34.4654C42.7749-32.5191 33.189-31.4981 22.482-31.44C21.8208-31.4297 21.4028-30.9912 21.4028-30.4028C21.4028-29.8076 21.8379-29.3725 22.482-29.3794ZM22.482-42.8476C33.189-42.9057 42.7749-43.9267 53.3667-45.8799C54.0483-46.0015 54.4878-46.3457 54.4878-46.9272C54.4878-47.519 54.0073-48.0518 53.3745-47.9336C42.7749-45.9873 33.189-45.0083 22.482-44.9502C21.8208-44.9399 21.4028-44.4595 21.4028-43.9165C21.4028-43.3213 21.8379-42.8408 22.482-42.8476ZM22.482-56.3579C33.189-56.416 42.7749-57.395 53.3667-59.3481C54.0483-59.4697 54.4878-59.8559 54.4878-60.4409C54.4878-60.9873 54.0073-61.5654 53.3745-61.4438C42.7749-59.4976 33.189-58.4766 22.482-58.4639C21.8208-58.4536 21.4028-57.9731 21.4028-57.3847C21.4028-56.8349 21.8379-56.351 22.482-56.3579ZM22.482-15.8691C27.8408-15.8999 32.1275-16.395 37.396-16.897C38.0401-16.9629 38.5-17.3594 38.5-17.9341C38.5-18.5259 38.0195-19.02 37.3379-18.9473C32.1524-18.4522 27.8306-18.0025 22.482-17.9751C21.8208-17.9649 21.4028-17.4844 21.4028-16.8926C21.4028-16.3428 21.8379-15.8623 22.482-15.8691Z"/>
  </g>
 </g>
</svg>
