<?xml version="1.0" encoding="UTF-8" standalone="no"?>
<!DOCTYPE svg PUBLIC "-//W3C//DTD SVG 1.1//EN" "http://www.w3.org/Graphics/SVG/1.1/DTD/svg11.dtd">
<svg width="100%" height="100%" viewBox="0 0 470 470" version="1.1" xmlns="http://www.w3.org/2000/svg" xmlns:xlink="http://www.w3.org/1999/xlink" xml:space="preserve" xmlns:serif="http://www.serif.com/" style="fill-rule:evenodd;clip-rule:evenodd;stroke-linejoin:round;stroke-miterlimit:2;">
    <g transform="matrix(1,0,0,1,-624,-15)">
        <g id="Artboard2" transform="matrix(1.254332,0,0,1.293528,598.538756,-60.272476)">
            <rect x="20.299" y="58.192" width="374.701" height="363.347" style="fill:none;"/>
            <clipPath id="_clip1">
                <rect x="20.299" y="58.192" width="374.701" height="363.347"/>
            </clipPath>
            <g clip-path="url(#_clip1)">
                <g transform="matrix(1.112715,0,0,1.078998,-12.111816,-4.448878)">
                    <g id="old-cone" serif:id="old cone" transform="matrix(8.001296,0,0,7.087891,38.502668,69.764404)">
                        <path d="M31.032,28.324C32.823,28.326 33.946,28.327 33.946,28.327C33.946,28.327 34.858,28.408 35.382,29.053C35.64,29.37 36.697,32.975 37.704,36.556L37.898,37.248C38.283,38.628 38.654,39.972 38.959,41.088L39.175,41.88C39.512,43.117 39.729,43.924 39.729,43.924C39.729,43.924 39.983,45.855 38.329,45.855L1.586,45.855C1.586,45.855 0,46 0,44.152C0,42.305 4.211,29.274 4.211,29.274L4.241,29.215C4.355,29.004 4.826,28.3 6.004,28.3L6.412,28.301C6.445,28.301 7.336,28.302 8.779,28.303C8.675,28.656 8.572,29.006 8.474,29.342C8.339,29.843 8.212,30.305 8.101,30.695C8.049,30.882 8.021,31.068 8.019,31.254C8.054,33.83 12.827,36.233 19.881,36.233C26.43,36.233 31.687,33.797 31.724,31.163C31.722,31.008 31.701,30.852 31.662,30.695C31.568,30.325 31.452,29.87 31.324,29.368C31.232,29.033 31.133,28.682 31.032,28.324Z" style="fill:rgb(255,120,0);"/>
                    </g>
                    <g id="odd-stripes" serif:id="odd stripes" transform="matrix(0.842965,0,0,0.87926,31.357751,58.025765)">
                        <path d="M106.648,198.753L124.17,142.401L124.149,142.39C125.612,137.586 127.177,132.475 128.844,127.055C138.315,131.47 161.859,140.415 197.17,140.415C234.573,140.415 256.657,130.972 265.574,126.09C266.964,130.567 268.473,135.433 270.19,140.983L270.075,141.081L287.867,198.711C266.922,219.503 231.537,223.643 197.32,223.643C163.245,223.643 124.542,216.957 106.648,198.753ZM153.146,49.22L164.82,11.679C167.912,4.019 178.877,0.189 197.715,0.189C216.553,0.189 227.358,4.019 230.13,11.679L241.689,49.125C212.836,56.298 178.026,55.654 153.146,49.22Z" style="fill:rgb(255,120,0);"/>
                    </g>
                </g>
            </g>
        </g>
    </g>
</svg>
