<?xml version="1.0" encoding="utf-8"?>
<!-- Generator: Adobe Illustrator 16.0.4, SVG Export Plug-In . SVG Version: 6.00 Build 0)  -->
<!DOCTYPE svg PUBLIC "-//W3C//DTD SVG 1.1//EN" "http://www.w3.org/Graphics/SVG/1.1/DTD/svg11.dtd">
<svg version="1.1" id="Ebene_1" xmlns="http://www.w3.org/2000/svg" xmlns:xlink="http://www.w3.org/1999/xlink" x="0px" y="0px"
	 width="595.28px" height="841.89px" viewBox="0 0 595.28 841.89" enable-background="new 0 0 595.28 841.89" xml:space="preserve">
<path fill="none" stroke="#000000" stroke-miterlimit="10" d="M482.67,593.48c-5.52-23.16-12.52-45.89-19.33-68.68
	c-5.56-18.62-11.229-37.2-17.47-55.58c-2.79-8.21-8.68-13.29-15.76-13.561c-7.46-0.31-14.94-0.439-22.41-0.649
	c-5.91-0.17-4.74,1.03-6.62-5.03c-5.2-16.71-10.19-33.48-15.32-50.21c-7.92-25.8-15.91-51.59-23.819-77.4
	c-10.95-35.71-21.881-71.42-33.49-106.93c-1.62-4.96-4.82-8.26-9.561-10.05c-13.89-5.24-27.99-5.05-42.12-1.16
	c-6.72,1.85-10.96,6.08-13.2,13.04c-11.61,36.06-22.68,72.29-33.88,108.48c-5.59,18.04-11.13,36.1-16.66,54.15
	c-7.41,24.18-14.81,48.36-22.12,72.57c-0.63,2.1-1.71,2.59-3.68,2.56c-4.6-0.069-9.2-0.04-13.79,0.091
	c-4.16,0.13-8.4-0.021-12.44,0.77c-7.36,1.43-11.83,6.32-14.18,13.35c-8.84,26.53-16.93,53.28-24.75,80.12
	c-4.57,15.66-9.21,31.311-12.72,47.271c-2.24,10.189,6.3,19,15.27,18.93c57.2-0.45,114.4-0.22,171.6-0.22
	c57.74,0,115.47-0.021,173.2,0.04c3.811,0.01,6.78-1.33,9.48-3.86C484.45,606.36,484.26,600.15,482.67,593.48z M396.47,484.59
	c-6.029,9.84-15.1,16.14-25.27,20.92c-13.03,6.13-26.891,9.3-41.13,11.17c-11.141,1.46-22.301,1.88-33.5,1.82
	c-20,0.22-39.83-1.29-59.2-6.561c-13.71-3.71-26.71-8.939-36.78-19.59c-3.35-3.54-5.8-7.61-7.5-12.18
	c-2.09-5.57,0.08-10.74,1.59-15.86c5.16-17.46,10.54-34.85,15.86-52.25c0.33-1.08,0.54-2.37,2.03-2.6c1.23-0.2,2.07,0.43,2.67,1.38
	c5.54,8.66,14.2,13.01,23.3,16.59c11.9,4.66,24.4,6.61,37.07,7.75c12.37,1.11,24.78,1.07,37.14,0.42
	c16.63-0.89,33.11-3.09,48.34-10.62c6.59-3.26,12.49-7.34,16.33-13.85c0.57-0.95,1.2-1.79,2.49-1.7c1.689,0.12,1.96,1.51,2.32,2.69
	c3.05,10.09,6.119,20.17,9.06,30.29c2.65,9.101,4.96,18.301,7.77,27.341C400.79,475.3,399.28,480,396.47,484.59z M235.2,332.98
	c4.37-14.25,8.68-28.52,12.99-42.79c2.62-8.66,5.26-17.32,7.79-26c0.62-2.11,1.87-2.97,3.78-2.19c14.46,5.95,29.68,5.01,44.8,5.06
	c6.73,0.02,13.37-0.77,19.971-2.01c2.31-0.43,4.54-1.18,6.649-2.24c3.36-1.67,4.24-1.41,5.36,2.13c2.979,9.44,5.87,18.91,8.79,28.37
	c3.99,12.93,7.91,25.87,12.04,38.75c0.91,2.85,0.46,4.8-1.75,6.79c-6.57,5.9-14.59,8.69-22.88,10.85
	c-11.73,3.06-23.74,3.69-36.64,3.85c-14.53-0.32-29.81-1.3-44.48-6.49c-5.23-1.86-10.27-4.09-14.69-7.64
	C234.57,337.52,234.41,335.58,235.2,332.98z"/>
</svg>
