<?xml version="1.0" encoding="UTF-8" standalone="no"?>
<!-- Created with Inkscape (http://www.inkscape.org/) -->

<svg
   width="1080"
   height="1080"
   viewBox="0 0 1080 1080"
   version="1.1"
   id="SVGRoot"
   sodipodi:docname="track_placeholder_dark.svg"
   inkscape:version="1.1.2 (0a00cf5339, 2022-02-04)"
   xmlns:inkscape="http://www.inkscape.org/namespaces/inkscape"
   xmlns:sodipodi="http://sodipodi.sourceforge.net/DTD/sodipodi-0.dtd"
   xmlns="http://www.w3.org/2000/svg"
   xmlns:svg="http://www.w3.org/2000/svg">
  <sodipodi:namedview
     id="namedview1276"
     pagecolor="#26282b"
     bordercolor="#ff1111"
     borderopacity="1"
     inkscape:pageshadow="0"
     inkscape:pageopacity="1"
     inkscape:pagecheckerboard="1"
     inkscape:document-units="px"
     showgrid="true"
     inkscape:zoom="0.46929647"
     inkscape:cx="624.33881"
     inkscape:cy="559.34791"
     inkscape:window-width="1920"
     inkscape:window-height="1009"
     inkscape:window-x="0"
     inkscape:window-y="1114"
     inkscape:window-maximized="1"
     inkscape:current-layer="layer1"
     inkscape:snap-bbox="true"
     inkscape:bbox-paths="true"
     inkscape:bbox-nodes="true"
     inkscape:snap-bbox-edge-midpoints="true"
     inkscape:snap-bbox-midpoints="true"
     inkscape:object-paths="true"
     inkscape:snap-intersection-paths="true"
     inkscape:snap-smooth-nodes="true"
     inkscape:snap-midpoints="true"
     inkscape:snap-object-midpoints="true"
     inkscape:snap-center="true"
     inkscape:snap-text-baseline="true"
     inkscape:snap-grids="true">
    <inkscape:grid
       type="xygrid"
       id="grid1339" />
  </sodipodi:namedview>
  <defs
     id="defs1271" />
  <g
     inkscape:label="Layer 1"
     inkscape:groupmode="layer"
     id="layer1">
    <rect
       style="color:#000000;overflow:visible;fill:#26282b;fill-opacity:1;stroke:none;stroke-width:2.00001;stroke-linejoin:round;stop-color:#000000"
       id="rect845"
       width="1080"
       height="1080"
       x="0"
       y="0" />
    <path
       id="path170"
       style="color:#000000;clip-rule:evenodd;fill:#737373;fill-opacity:1;fill-rule:evenodd;stroke-width:0.0518518;-inkscape-stroke:none"
       d="m 692.85434,308.57142 c -4.75181,0.0964 -9.57976,1.09215 -14.23828,3.16408 l -135,60.00418 c -12.96655,5.78286 -21.71862,18.31373 -22.78879,32.3563 h -0.11299 v 2.90039 16.38532 97.18191 77.29353 c -2.66899,-1.35636 -5.41252,-2.57487 -8.21149,-3.65373 -10.35126,-3.98989 -21.61061,-6.30878 -33.37333,-6.81781 -11.76273,-0.50895 -24.00651,0.79341 -36.27371,3.95507 v -0.0386 c -24.53153,6.31135 -45.19663,19.14376 -59.13785,36.19838 -13.94122,17.05465 -21.19392,39.61371 -15.06696,61.58623 6.12778,21.97545 23.85804,37.67312 44.56054,45.65289 20.70251,7.97979 45.11266,9.18615 69.64704,2.86273 24.53153,-6.31134 45.19663,-19.14375 59.13785,-36.19837 10.77564,-13.18214 17.51994,-29.64814 17.21401,-46.5946 h 0.0753 V 635.52361 503.42401 L 732.8571,426.28115 v -79.28991 c 0,-20.39465 -16.54575,-36.24615 -35.29436,-38.23241 -1.56233,-0.16586 -3.1245,-0.22043 -4.70843,-0.189 z m 1.43136,38.42075 v 54.20341 l -134.99999,60.0042 V 406.99637 Z M 471.4453,625.95702 c 10.1928,-0.30395 19.58965,1.28693 27.19588,4.21875 12.16996,4.69092 18.98291,11.89118 21.24441,20.0014 2.26233,8.11316 0.16971,17.11974 -7.75947,26.8192 -7.92876,9.69944 -21.65074,18.80999 -38.87279,23.24079 -17.21909,4.43799 -34.01028,3.1843 -46.18024,-1.50679 -12.16996,-4.69093 -18.98291,-11.89119 -21.24441,-20.00141 -2.26233,-8.11315 -0.16971,-17.11974 7.75947,-26.8192 7.92879,-9.69944 21.65076,-18.80999 38.87279,-23.24079 6.45717,-1.66416 12.86868,-2.52972 18.98436,-2.71205 z" />
  </g>
</svg>
