<?xml version="1.0" encoding="UTF-8" standalone="no"?>
<svg
   width="256"
   height="256"
   viewBox="0 0 256 256"
   version="1.1"
   id="SVGRoot"
   sodipodi:docname="ic_server_add_big.svg"
   inkscape:version="1.1.2 (0a00cf5339, 2022-02-04)"
   xmlns:inkscape="http://www.inkscape.org/namespaces/inkscape"
   xmlns:sodipodi="http://sodipodi.sourceforge.net/DTD/sodipodi-0.dtd"
   xmlns="http://www.w3.org/2000/svg"
   xmlns:svg="http://www.w3.org/2000/svg"
   xmlns:rdf="http://www.w3.org/1999/02/22-rdf-syntax-ns#"
   xmlns:cc="http://creativecommons.org/ns#"
   xmlns:dc="http://purl.org/dc/elements/1.1/">
  <defs
     id="defs1504" />
  <sodipodi:namedview
     id="base"
     pagecolor="#ffffff"
     bordercolor="#666666"
     borderopacity="1.0"
     inkscape:pageopacity="0.0"
     inkscape:pageshadow="2"
     inkscape:zoom="4.3281251"
     inkscape:cx="162.19494"
     inkscape:cy="182.06498"
     inkscape:document-units="px"
     inkscape:current-layer="layer1"
     inkscape:document-rotation="0"
     showgrid="true"
     inkscape:window-width="1920"
     inkscape:window-height="1043"
     inkscape:window-x="0"
     inkscape:window-y="0"
     inkscape:window-maximized="1"
     inkscape:pagecheckerboard="1"
     inkscape:snap-bbox="true"
     inkscape:bbox-paths="true"
     inkscape:bbox-nodes="true"
     inkscape:snap-bbox-edge-midpoints="true"
     inkscape:snap-bbox-midpoints="true"
     inkscape:object-paths="true"
     inkscape:snap-intersection-paths="true"
     inkscape:snap-smooth-nodes="true"
     inkscape:snap-midpoints="true"
     inkscape:snap-object-midpoints="true"
     inkscape:snap-center="true"
     inkscape:snap-global="false">
    <inkscape:grid
       type="xygrid"
       id="grid2074" />
  </sodipodi:namedview>
  <metadata
     id="metadata1507">
    <rdf:RDF>
      <cc:Work
         rdf:about="">
        <dc:format>image/svg+xml</dc:format>
        <dc:type
           rdf:resource="http://purl.org/dc/dcmitype/StillImage" />
      </cc:Work>
    </rdf:RDF>
  </metadata>
  <g
     inkscape:label="Layer 1"
     inkscape:groupmode="layer"
     id="layer1">
    <path
       id="path25095-3"
       style="color:#000000;fill:#ffffff;stroke-linecap:round;-inkscape-stroke:none"
       d="M 64 60 C 53.000132 60 44 69.000132 44 80 L 44 150.85352 A 44 44 0 0 1 52 142.13672 L 52 110.66602 L 204 110.66602 L 204 145.33398 L 111.53906 145.33398 A 44 44 0 0 1 117.71094 153.33398 L 204 153.33398 L 204 176 C 204 182.68011 198.68011 188 192 188 L 122.30273 188 A 44 44 0 0 1 119.08398 196 L 192 196 C 202.99987 196 212 186.99987 212 176 L 212 80 C 212 69.000132 202.99987 60 192 60 L 64 60 z M 64 68 L 192 68 C 198.68011 68 204 73.319886 204 80 L 204 102.66602 L 52 102.66602 L 52 80 C 52 73.319886 57.319886 68 64 68 z M 176 75.333984 A 10 10 0 0 0 166 85.333984 A 10 10 0 0 0 176 95.333984 A 10 10 0 0 0 186 85.333984 A 10 10 0 0 0 176 75.333984 z M 176 118 A 10 10 0 0 0 166 128 A 10 10 0 0 0 176 138 A 10 10 0 0 0 186 128 A 10 10 0 0 0 176 118 z M 80 140 A 36 36 0 0 0 44 176 A 36 36 0 0 0 80 212 A 36 36 0 0 0 116 176 A 36 36 0 0 0 80 140 z M 80 154 A 4 4 0 0 1 84 158 L 84 172 L 98 172 A 4 4 0 0 1 102 176 A 4 4 0 0 1 98 180 L 84 180 L 84 194 A 4 4 0 0 1 80 198 A 4 4 0 0 1 76 194 L 76 180 L 62 180 A 4 4 0 0 1 58 176 A 4 4 0 0 1 62 172 L 76 172 L 76 158 A 4 4 0 0 1 80 154 z M 176 160.66602 A 10 10 0 0 0 166 170.66602 A 10 10 0 0 0 176 180.66602 A 10 10 0 0 0 186 170.66602 A 10 10 0 0 0 176 160.66602 z " />
  </g>
</svg>
