<?xml version="1.0" encoding="UTF-8" standalone="no"?>
<svg
   width="32"
   height="32"
   viewBox="0 0 32 32"
   version="1.1"
   id="SVGRoot"
   sodipodi:docname="ic_repeat_ab_1.svg"
   inkscape:version="1.1.2 (0a00cf5339, 2022-02-04)"
   xmlns:inkscape="http://www.inkscape.org/namespaces/inkscape"
   xmlns:sodipodi="http://sodipodi.sourceforge.net/DTD/sodipodi-0.dtd"
   xmlns="http://www.w3.org/2000/svg"
   xmlns:svg="http://www.w3.org/2000/svg"
   xmlns:rdf="http://www.w3.org/1999/02/22-rdf-syntax-ns#"
   xmlns:cc="http://creativecommons.org/ns#"
   xmlns:dc="http://purl.org/dc/elements/1.1/">
  <defs
     id="defs1504" />
  <sodipodi:namedview
     id="base"
     pagecolor="#ffffff"
     bordercolor="#666666"
     borderopacity="1.0"
     inkscape:pageopacity="0.0"
     inkscape:pageshadow="2"
     inkscape:zoom="15.839192"
     inkscape:cx="8.3337584"
     inkscape:cy="19.603273"
     inkscape:document-units="px"
     inkscape:current-layer="layer1"
     inkscape:document-rotation="0"
     showgrid="true"
     inkscape:window-width="1920"
     inkscape:window-height="1016"
     inkscape:window-x="0"
     inkscape:window-y="0"
     inkscape:window-maximized="1"
     inkscape:pagecheckerboard="1">
    <inkscape:grid
       type="xygrid"
       id="grid2074" />
  </sodipodi:namedview>
  <metadata
     id="metadata1507">
    <rdf:RDF>
      <cc:Work
         rdf:about="">
        <dc:format>image/svg+xml</dc:format>
        <dc:type
           rdf:resource="http://purl.org/dc/dcmitype/StillImage" />
      </cc:Work>
    </rdf:RDF>
  </metadata>
  <g
     inkscape:label="Layer 1"
     inkscape:groupmode="layer"
     id="layer1">
    <path
       id="path40325"
       style="color:#000000;fill:#ffffff;fill-rule:evenodd;stroke-linecap:round;-inkscape-stroke:none"
       d="M 19.333984 3.6660156 C 19.068783 3.6660557 18.814458 3.7714389 18.626953 3.9589844 C 18.236529 4.3494914 18.236529 4.9825399 18.626953 5.3730469 L 20.96875 7.7148438 C 20.87095 7.6831008 20.768838 7.6666306 20.666016 7.6660156 L 6.6660156 7.6660156 C 4.6528181 7.6660154 3 9.3207882 3 11.333984 L 3 18 C 3 18.552285 3.4477153 19 4 19 C 4.5522847 19 5 18.552285 5 18 L 5 11.333984 C 5 10.401665 5.7336961 9.6660156 6.6660156 9.6660156 L 20.666016 9.6660156 C 20.774172 9.6624356 20.88103 9.6413316 20.982422 9.6035156 L 18.626953 11.958984 C 18.236529 12.349491 18.236529 12.98254 18.626953 13.373047 C 19.01746 13.763471 19.650509 13.763471 20.041016 13.373047 L 24.748047 8.6660156 L 20.041016 3.9589844 C 19.85351 3.7714386 19.599185 3.6660555 19.333984 3.6660156 z M 21.617188 8.3632812 L 21.919922 8.6660156 L 21.603516 8.9824219 C 21.641336 8.8810296 21.662436 8.7741713 21.666016 8.6660156 C 21.665401 8.5631939 21.648937 8.4610822 21.617188 8.3632812 z M 12.664062 18.333984 C 12.398862 18.334025 12.144537 18.439408 11.957031 18.626953 L 7.2519531 23.332031 L 11.957031 28.037109 C 12.347762 28.428834 12.982316 28.428834 13.373047 28.037109 C 13.763468 27.646601 13.763468 27.013555 13.373047 26.623047 L 11.080078 24.332031 L 14.666016 24.332031 C 15.2183 24.332028 15.666013 23.884315 15.666016 23.332031 C 15.666013 22.779747 15.2183 22.332034 14.666016 22.332031 L 11.080078 22.332031 L 13.373047 20.041016 C 13.763468 19.650508 13.763468 19.017461 13.373047 18.626953 C 13.185063 18.438928 12.929941 18.333506 12.664062 18.333984 z M 20.087891 19.333984 C 19.421224 19.333984 19.007333 19.649774 18.761719 20.333984 L 16.457031 26.607422 C 16.381008 26.823796 16.339844 27.023723 16.339844 27.169922 C 16.339844 27.678693 16.684668 28 17.234375 28 C 17.702211 28 17.965164 27.766481 18.128906 27.205078 L 18.574219 25.888672 L 21.621094 25.888672 L 22.064453 27.222656 C 22.222348 27.772363 22.485346 28 22.982422 28 C 23.497041 28 23.867188 27.655302 23.867188 27.169922 C 23.867188 26.994483 23.837731 26.835492 23.755859 26.607422 L 21.439453 20.328125 C 21.187991 19.638067 20.777949 19.333984 20.087891 19.333984 z M 26.072266 19.333984 C 25.501695 19.333984 25.166016 19.680796 25.166016 20.275391 L 25.166016 27.050781 C 25.166016 27.651382 25.501695 28 26.072266 28 L 29.003906 28 C 30.853756 28 32 27.045057 32 25.519531 C 32 24.372384 31.134208 23.513918 29.957031 23.423828 L 29.957031 23.375 C 30.87595 23.236862 31.585938 22.445043 31.585938 21.496094 C 31.585938 20.168766 30.565128 19.333984 28.9375 19.333984 L 26.072266 19.333984 z M 26.978516 20.685547 L 28.46875 20.685547 C 29.315597 20.685547 29.802734 21.080647 29.802734 21.777344 C 29.802734 22.510076 29.25017 22.9375 28.283203 22.9375 L 26.978516 22.9375 L 26.978516 20.685547 z M 20.052734 21.064453 L 20.09375 21.064453 L 21.210938 24.519531 L 18.958984 24.519531 L 20.052734 21.064453 z M 26.978516 24.132812 L 28.498047 24.132812 C 29.567116 24.132812 30.150391 24.564189 30.150391 25.375 C 30.150391 26.203829 29.586061 26.648438 28.541016 26.648438 L 26.978516 26.648438 L 26.978516 24.132812 z " />
    <g
       aria-label="A"
       id="text40335"
       style="font-weight:900;font-size:10.9739px;font-family:'SF Pro Rounded';-inkscape-font-specification:'SF Pro Rounded, Heavy';letter-spacing:0px;word-spacing:0px;stroke-width:1px" />
    <g
       aria-label="B"
       id="text40339"
       style="font-weight:900;font-size:11.3541px;font-family:'SF Pro Rounded';-inkscape-font-specification:'SF Pro Rounded, Heavy';letter-spacing:0px;word-spacing:0px;stroke-width:0.999996px" />
  </g>
</svg>
